<svg width="343" height="343" viewBox="0 0 343 343" fill="none" xmlns="http://www.w3.org/2000/svg">
<path d="M73.7447 79.0623H60.0063V34.7067H44.7652C44.646 37.1196 44.5506 39.0154 44.479 40.3942C44.4075 41.773 44.3001 43.595 44.157 45.8602C43.847 50.8337 43.3699 55.0194 42.7259 58.4172C42.1058 61.7903 41.4022 64.5725 40.6151 66.7638C39.8041 68.9798 38.9455 70.7895 38.0391 72.1929C37.1328 73.5963 36.2264 74.7412 35.3201 75.6276C34.1513 76.7848 32.6964 77.7081 30.9552 78.3975C29.2141 79.0869 27.3656 79.4316 25.4098 79.4316C24.2172 79.4316 22.9769 79.3824 21.689 79.2839C20.4248 79.1854 19.6139 79.1115 19.2561 79.0623V66.7638H19.757C19.9716 66.7885 20.2102 66.8131 20.4725 66.8377C20.7587 66.8623 21.0807 66.8746 21.4385 66.8746C22.7742 66.8746 23.764 66.7885 24.408 66.6161C25.052 66.4438 25.6244 66.136 26.1253 65.6928C27.938 64.0432 29.1783 61.4333 29.8461 57.8632C30.5378 54.2684 31.0506 49.2457 31.3846 42.7948C31.5277 40.2342 31.635 37.452 31.7066 34.4481C31.802 31.4197 31.8854 27.9604 31.957 24.0702H73.7447V79.0623Z" fill="white"/>
<path d="M136.605 79.0623H122.402L118.717 67.9457H98.9677L95.2826 79.0623H81.4368L101.114 24.0702H116.928L136.605 79.0623ZM115.389 57.8632L108.842 38.1414L102.295 57.8632H115.389Z" fill="white"/>
<path d="M192.024 79.0623H178.286V54.8347H158V79.0623H144.262V24.0702H158V44.1983H178.286V24.0702H192.024V79.0623Z" fill="white"/>
<path d="M254.241 79.0623H240.86V42.4624L218.75 79.0623H205.655V24.0702H219.036V57.1984L239.608 24.0702H254.241V79.0623Z" fill="white"/>
<path d="M309.302 34.7067H292.665V79.0623H278.927V34.7067H262.29V24.0702H309.302V34.7067Z" fill="white"/>
<rect width="343" height="343" fill="#32CCFF"/>
<path d="M78.5587 79.0623H64.8203V34.7067H49.5792C49.4599 37.1196 49.3645 39.0154 49.293 40.3942C49.2214 41.773 49.1141 43.595 48.971 45.8602C48.6609 50.8337 48.1839 55.0194 47.5399 58.4172C46.9198 61.7903 46.2161 64.5725 45.429 66.7638C44.6181 68.9798 43.7594 70.7895 42.8531 72.1929C41.9467 73.5963 41.0404 74.7412 40.134 75.6276C38.9653 76.7848 37.5104 77.7081 35.7692 78.3975C34.028 79.0869 32.1796 79.4316 30.2237 79.4316C29.0312 79.4316 27.7909 79.3824 26.5029 79.2839C25.2388 79.1854 24.4278 79.1115 24.0701 79.0623V66.7638H24.5709C24.7856 66.7885 25.0241 66.8131 25.2865 66.8377C25.5727 66.8623 25.8947 66.8746 26.2525 66.8746C27.5882 66.8746 28.578 66.7885 29.222 66.6161C29.866 66.4438 30.4384 66.136 30.9393 65.6928C32.752 64.0432 33.9923 61.4333 34.6601 57.8632C35.3518 54.2684 35.8646 49.2457 36.1985 42.7948C36.3416 40.2342 36.449 37.452 36.5205 34.4481C36.6159 31.4197 36.6994 27.9604 36.771 24.0702H78.5587V79.0623Z" fill="white"/>
<path d="M141.419 79.0623H127.216L123.531 67.9457H103.782L100.097 79.0623H86.2508L105.928 24.0702H121.742L141.419 79.0623ZM120.203 57.8632L113.656 38.1414L107.109 57.8632H120.203Z" fill="white"/>
<path d="M196.838 79.0623H183.1V54.8347H162.814V79.0623H149.076V24.0702H162.814V44.1983H183.1V24.0702H196.838V79.0623Z" fill="white"/>
<path d="M259.055 79.0623H245.674V42.4624L223.564 79.0623H210.469V24.0702H223.85V57.1984L244.422 24.0702H259.055V79.0623Z" fill="white"/>
<path d="M314.116 34.7067H297.479V79.0623H283.741V34.7067H267.104V24.0702H314.116V34.7067Z" fill="white"/>
<path d="M214.68 295.856C217.247 295.856 219.328 293.775 219.328 291.209C219.328 288.642 217.247 286.562 214.68 286.562C212.114 286.562 210.033 288.642 210.033 291.209C210.033 293.775 212.114 295.856 214.68 295.856Z" fill="white"/>
<path d="M241.955 278.94V278.161H236.913V283.022H196.348V278.161H191.306V278.941H189.562V289.854H191.306V290.633H196.348V285.772H201.941C201.362 286.363 201.248 287.295 201.718 288.017L209.56 300.051C209.663 300.207 209.787 300.341 209.924 300.454V310.426C209.924 311.219 210.171 311.927 210.583 312.526L205.045 328.034C204.65 329.144 205.227 330.364 206.337 330.76C206.573 330.844 206.816 330.885 207.053 330.885C207.93 330.885 208.751 330.341 209.062 329.469L214.402 314.515C214.495 314.519 214.588 314.526 214.681 314.526C214.943 314.526 215.201 314.504 215.457 314.466L220.814 329.469C221.124 330.341 221.946 330.885 222.822 330.885C223.06 330.885 223.302 330.844 223.538 330.76C224.648 330.365 225.226 329.144 224.83 328.034L219.094 311.971C219.311 311.504 219.437 310.986 219.437 310.426V300.167C219.437 300.163 219.437 300.157 219.437 300.154C219.463 300.119 219.49 300.088 219.514 300.051L227.357 288.017C227.826 287.295 227.713 286.363 227.134 285.772H236.913V290.633H241.955V289.853H243.699V278.94H241.955ZM224.333 286.046L217.352 296.759C216.881 296.472 216.364 296.255 215.839 296.126L214.681 297.292L213.559 296.113C213.554 296.114 213.551 296.114 213.547 296.115C212.935 296.261 212.336 296.525 211.805 296.884L204.742 286.046C204.676 285.946 204.602 285.855 204.521 285.772H224.554C224.473 285.855 224.399 285.947 224.333 286.046Z" fill="white"/>
<path d="M53.8969 243.788C50.3987 243.788 47.1979 243.368 44.2947 242.527C41.4152 241.686 38.9046 240.389 36.7628 238.636C34.6448 236.882 33.0028 234.673 31.8368 232.007C30.6707 229.34 30.0876 226.218 30.0876 222.639C30.0876 218.868 30.7064 215.614 31.9438 212.875C33.2051 210.137 34.9542 207.867 37.1911 206.066C39.3567 204.361 41.8554 203.112 44.6873 202.319C47.5192 201.526 50.4582 201.13 53.5042 201.13C56.2409 201.13 58.7634 201.43 61.0718 202.031C63.3801 202.631 65.5338 203.412 67.5327 204.373V215.433H65.7122C65.2125 215.001 64.6057 214.497 63.8918 213.92C63.2016 213.344 62.3449 212.779 61.3216 212.227C60.3459 211.698 59.2751 211.266 58.109 210.93C56.9429 210.57 55.5865 210.389 54.0397 210.389C50.6128 210.389 47.9713 211.494 46.1151 213.704C44.2828 215.89 43.3666 218.868 43.3666 222.639C43.3666 226.53 44.3066 229.485 46.1865 231.502C48.0903 233.52 50.7794 234.529 54.2538 234.529C55.8721 234.529 57.3237 234.348 58.6087 233.988C59.9176 233.604 61.0004 233.16 61.8571 232.655C62.6662 232.175 63.3801 231.67 63.9988 231.142C64.6176 230.613 65.1887 230.097 65.7122 229.593H67.5327V240.653C65.51 241.614 63.392 242.371 61.1789 242.923C58.9895 243.5 56.5622 243.788 53.8969 243.788Z" fill="white"/>
<path d="M117.257 242.707H104.407V211.038H89.6286V242.707H76.778V202.247H117.257V242.707Z" fill="white"/>
<path d="M170.373 222.495C170.373 229.148 168.445 234.396 164.59 238.24C160.759 242.059 155.369 243.968 148.42 243.968C141.471 243.968 136.069 242.059 132.214 238.24C128.383 234.396 126.467 229.148 126.467 222.495C126.467 215.794 128.394 210.534 132.25 206.715C136.129 202.895 141.519 200.986 148.42 200.986C155.416 200.986 160.818 202.907 164.626 206.751C168.457 210.594 170.373 215.842 170.373 222.495ZM154.56 232.331C155.392 231.298 156.011 230.061 156.416 228.62C156.844 227.155 157.058 225.137 157.058 222.567C157.058 220.189 156.844 218.196 156.416 216.586C155.987 214.977 155.392 213.692 154.631 212.731C153.869 211.747 152.953 211.05 151.882 210.642C150.811 210.233 149.657 210.029 148.42 210.029C147.182 210.029 146.076 210.197 145.1 210.534C144.148 210.87 143.232 211.542 142.352 212.551C141.566 213.488 140.936 214.773 140.46 216.406C140.008 218.04 139.781 220.093 139.781 222.567C139.781 224.777 139.984 226.698 140.388 228.332C140.793 229.941 141.388 231.238 142.173 232.223C142.935 233.16 143.839 233.844 144.886 234.276C145.957 234.709 147.171 234.925 148.527 234.925C149.693 234.925 150.8 234.733 151.847 234.348C152.918 233.94 153.822 233.268 154.56 232.331Z" fill="white"/>
<path d="M221.418 221.919C221.418 225.257 220.907 228.296 219.883 231.034C218.884 233.772 217.563 236.03 215.921 237.807C214.208 239.681 212.268 241.098 210.103 242.059C207.937 243.019 205.617 243.5 203.142 243.5C200.857 243.5 198.918 243.248 197.323 242.743C195.729 242.263 194.099 241.578 192.433 240.689V257.551H179.582V202.247H192.433V206.462C194.408 204.877 196.419 203.592 198.466 202.607C200.536 201.622 202.916 201.13 205.605 201.13C210.602 201.13 214.481 202.98 217.242 206.678C220.026 210.377 221.418 215.457 221.418 221.919ZM208.175 222.171C208.175 218.232 207.509 215.373 206.176 213.596C204.843 211.819 202.737 210.93 199.858 210.93C198.644 210.93 197.395 211.122 196.11 211.506C194.825 211.867 193.599 212.395 192.433 213.092V233.448C193.29 233.784 194.206 234 195.182 234.096C196.157 234.192 197.121 234.24 198.073 234.24C201.476 234.24 204.01 233.244 205.676 231.25C207.342 229.232 208.175 226.206 208.175 222.171Z" fill="white"/>
<path d="M263.397 211.038H250.617V242.707H237.767V211.038H224.988V202.247H263.397V211.038Z" fill="white"/>
<path d="M309.302 224.873H279.888C280.079 228.043 281.268 230.469 283.458 232.151C285.671 233.832 288.919 234.673 293.203 234.673C295.916 234.673 298.545 234.18 301.092 233.196C303.638 232.211 305.649 231.154 307.124 230.025H308.552V240.437C305.649 241.614 302.912 242.467 300.342 242.995C297.772 243.524 294.928 243.788 291.811 243.788C283.767 243.788 277.604 241.962 273.32 238.312C269.037 234.661 266.895 229.461 266.895 222.711C266.895 216.034 268.918 210.75 272.963 206.859C277.033 202.944 282.601 200.986 289.669 200.986C296.189 200.986 301.092 202.655 304.376 205.994C307.66 209.309 309.302 214.088 309.302 220.333V224.873ZM296.523 217.271C296.451 214.557 295.785 212.515 294.524 211.146C293.262 209.777 291.299 209.092 288.634 209.092C286.159 209.092 284.124 209.741 282.53 211.038C280.935 212.335 280.043 214.413 279.853 217.271H296.523Z" fill="white"/>
<path d="M165.929 159H152.988V141.973H138.106V159H125.165V119.081H138.106V132.838H152.988V119.081H165.929V159Z" fill="white"/>
<path d="M202.595 148.585V140.267C200.845 140.409 198.952 140.611 196.915 140.871C194.878 141.108 193.332 141.393 192.278 141.725C190.984 142.127 189.989 142.72 189.294 143.502C188.623 144.26 188.288 145.267 188.288 146.523C188.288 147.353 188.36 148.028 188.504 148.55C188.647 149.071 189.007 149.569 189.582 150.042C190.133 150.516 190.792 150.872 191.559 151.109C192.326 151.322 193.524 151.429 195.154 151.429C196.448 151.429 197.754 151.168 199.072 150.647C200.414 150.125 201.588 149.438 202.595 148.585ZM202.595 154.77C201.9 155.292 201.037 155.92 200.007 156.654C198.976 157.389 198.006 157.969 197.095 158.396C195.825 158.965 194.507 159.379 193.141 159.64C191.775 159.924 190.277 160.067 188.647 160.067C184.813 160.067 181.602 158.894 179.014 156.548C176.425 154.201 175.131 151.204 175.131 147.554C175.131 144.639 175.79 142.258 177.108 140.409C178.426 138.561 180.296 137.104 182.716 136.037C185.113 134.971 188.084 134.212 191.631 133.762C195.178 133.312 198.856 132.98 202.667 132.767V132.554C202.667 130.35 201.756 128.833 199.935 128.004C198.113 127.15 195.429 126.724 191.883 126.724C189.75 126.724 187.473 127.103 185.053 127.861C182.632 128.596 180.895 129.165 179.84 129.568H178.654V119.934C180.02 119.579 182.237 119.164 185.304 118.69C188.396 118.193 191.487 117.944 194.579 117.944C201.936 117.944 207.244 119.069 210.503 121.321C213.786 123.548 215.428 127.056 215.428 131.843V159H202.595V154.77Z" fill="white"/>
</svg>
