<svg width="141" height="33" viewBox="0 0 141 33" fill="none" xmlns="http://www.w3.org/2000/svg">
<g clip-path="url(#clip0_1_157)">
<path d="M60.1211 20.5099V3.42021H53.7981V5.43961C53.7981 8.98297 53.6323 11.5354 53.4633 12.934C53.2528 15.5272 52.8766 18.6567 50.4883 20.0991C49.401 20.7137 48.3105 20.8391 47.1371 20.9238L46.5536 18.4528C46.9745 18.3713 48.0203 18.2051 48.6453 17.8759C49.5254 17.4243 50.195 16.1889 50.533 14.044C50.6988 12.9747 50.9507 10.9992 50.9507 5.27656V0.911636H63.0929V20.5099H60.1211Z" fill="#32CCFF"/>
<path d="M99.1591 20.5099V11.2877H90.5308V20.5099H87.6866V0.911636H90.5308V8.89831H99.1591V0.911636H102.003V20.5099H99.1591Z" fill="#32CCFF"/>
<path d="M120.472 20.5099V5.02883H120.427L112.392 20.5099H108.999V0.911636H111.843V16.4334H111.93L119.968 0.911636H123.361V20.5099H120.472Z" fill="#32CCFF"/>
<path d="M135.044 3.29792V20.5099H132.193V3.29792H126.753V0.911636H140.487V3.29792H135.044Z" fill="#32CCFF"/>
<path d="M72.665 0.946129L66.3484 20.5099H69.1161L70.72 15.4802H79.0199L80.5664 20.5099H83.6338L77.1578 0.946129H72.665ZM71.4055 13.1378L74.7663 1.8743H74.8269L78.277 13.1378H71.4055Z" fill="#32CCFF"/>
<path d="M38.4386 3.1035V0.908501H35.7283C29.5934 0.908501 23.956 2.98121 19.4856 6.44304C15.0119 2.98121 9.3745 0.911636 3.24281 0.911636H0.532501V3.10664H3.24281C8.69851 3.10664 13.7269 4.894 17.7605 7.90429C17.2121 8.40914 16.686 8.9328 16.1822 9.48155C12.5599 6.85382 8.0863 5.29851 3.24281 5.29851H0.532501V7.49351H3.24281C7.54743 7.49351 11.5268 8.86382 14.76 11.178C14.3105 11.7612 13.8927 12.3633 13.4942 12.9842C10.6212 10.9114 7.07551 9.68538 3.24281 9.68538H0.532501V11.8804H3.24281C6.67694 11.8804 9.84003 13.0061 12.3782 14.9032C12.0274 15.568 11.7054 16.2484 11.4152 16.9477C9.18956 15.1541 6.34532 14.0754 3.246 14.0754H0.53569V16.2704H3.246C6.0998 16.2704 8.69213 17.3742 10.6053 19.1709C10.3438 20.0082 10.127 20.8611 9.95482 21.7328C8.41473 19.7479 5.98501 18.4654 3.24919 18.4654H0.538878V20.6604H3.24919C6.67375 20.6604 9.45102 23.3916 9.45102 26.7594H9.4574V31.579H11.6894V26.7531C11.6894 24.8654 11.9222 23.0341 12.3463 21.275C13.3411 22.8679 13.9151 24.7431 13.9151 26.7531H13.9214V31.5727H16.1535V26.7531C16.1535 24.6741 16.4915 22.6735 17.1132 20.7952C17.9263 22.6202 18.3791 24.6333 18.3791 26.7531H18.3855V31.5727H20.6175V26.7531C20.6175 24.6333 21.0703 22.6202 21.8834 20.7952C22.502 22.6704 22.8432 24.671 22.8432 26.7531V31.5727H25.0752V26.7531H25.0816C25.0816 24.7462 25.6555 22.8711 26.6503 21.275C27.0744 23.0341 27.3072 24.8654 27.3072 26.7531H27.3136V31.5727H29.5456V26.7531C29.5456 23.3853 32.3229 20.6541 35.7474 20.6541H38.4577V18.4591H35.7474C33.0116 18.4591 30.5819 19.7416 29.0418 21.7265C28.8664 20.8579 28.6496 20.0019 28.3913 19.1646C30.3045 17.3679 32.8968 16.2641 35.7506 16.2641H38.4609V14.0691H35.7506C32.6481 14.0691 29.8039 15.1478 27.5814 16.9414C27.2913 16.2453 26.966 15.5617 26.6185 14.8969C29.1566 13.003 32.3197 11.8741 35.7538 11.8741H38.4641V9.6791H35.7538C31.9179 9.6791 28.3754 10.9052 25.5024 12.9779C25.1039 12.357 24.683 11.7549 24.2366 11.1717C27.4698 8.85441 31.4492 7.48724 35.7538 7.48724H38.4641V5.29223H35.7538C30.9071 5.29223 26.4335 6.84755 22.8145 9.47528C22.3138 8.92653 21.7845 8.40287 21.2361 7.89802C25.2697 4.88773 30.2981 3.10037 35.7538 3.10037H38.4386V3.1035ZM16.4851 12.5671C17.0431 13.0688 17.566 13.605 18.0602 14.1695C17.6043 14.7872 17.1802 15.4331 16.7912 16.0979C16.3033 15.499 15.7772 14.9346 15.2128 14.4046C15.6114 13.7712 16.0323 13.1597 16.4851 12.5671ZM14.7154 20.974C14.2754 20.1336 13.7461 19.3434 13.1339 18.6253C13.4176 17.8665 13.7397 17.1264 14.0968 16.4052C14.674 16.9885 15.2001 17.6187 15.672 18.2898C15.2957 19.1552 14.9769 20.0521 14.7154 20.974ZM19.4824 20.7356C19.1348 19.8263 18.7075 18.9546 18.2133 18.1267C18.5927 17.3867 19.0136 16.6686 19.4824 15.985C19.9511 16.6686 20.372 17.3836 20.7514 18.1267C20.2572 18.9546 19.8331 19.8263 19.4824 20.7356ZM24.2525 20.974C23.991 20.0521 23.6722 19.1552 23.2927 18.2898C23.7647 17.6187 24.294 16.9885 24.8679 16.4052C25.225 17.1264 25.5471 17.8665 25.8309 18.6253C25.2187 19.3465 24.6894 20.1336 24.2525 20.974ZM23.7519 14.4046C23.1875 14.9346 22.6614 15.499 22.1735 16.0979C21.7845 15.4331 21.3636 14.7872 20.9045 14.1695C21.3987 13.6082 21.9248 13.0719 22.4797 12.5671C22.9324 13.1597 23.3565 13.7712 23.7519 14.4046ZM21.0575 10.8707C20.5059 11.363 19.9798 11.8866 19.4824 12.4323C18.9849 11.8866 18.4588 11.363 17.9072 10.8707C18.4078 10.3282 18.9339 9.8108 19.4824 9.31536C20.0308 9.8108 20.5569 10.3282 21.0575 10.8707Z" fill="#32CCFF"/>
</g>
<defs>
<clipPath id="clip0_1_157">
<rect width="141" height="32" fill="white" transform="translate(0 0.25)"/>
</clipPath>
</defs>
</svg>
